<svg width="70" height="70" viewBox="0 0 70 70" fill="none" xmlns="http://www.w3.org/2000/svg">
<path d="M69.9587 56.4925C70.0247 57.4981 70.0102 58.4254 69.9278 59.2867C69.903 59.534 69.8762 59.773 69.8412 60.0079C69.8061 60.2243 69.7732 60.4366 69.7319 60.6447C69.5917 61.3659 69.4041 62.0336 69.1712 62.6497C69.0166 63.0701 68.8434 63.4678 68.6537 63.8407C68.5342 64.0695 68.4146 64.2879 68.2847 64.5001C68.2105 64.6258 68.1342 64.7536 68.0559 64.8731C67.86 65.1699 67.6559 65.4542 67.4436 65.718C67.3385 65.8519 67.2313 65.9776 67.122 66.1013C67.0663 66.1631 67.0169 66.2249 66.9612 66.2826C66.8519 66.4021 66.7386 66.5196 66.6293 66.6288C65.7387 67.5149 64.5966 68.3597 63.1308 68.98C61.6692 69.6023 59.8921 70 57.7337 70C54.5197 70 50.4667 69.118 45.3685 66.773C43.342 65.8416 41.2578 64.7268 39.1467 63.4451C37.7717 62.6147 36.3822 61.708 34.9886 60.7353C33.595 61.708 32.2055 62.6105 30.8304 63.4451C28.7153 64.7289 26.6352 65.8437 24.6087 66.773C19.5084 69.116 15.4574 70 12.2435 70C7.92453 70 5.12494 68.4051 3.34788 66.6308C3.29016 66.5732 3.23244 66.5113 3.17265 66.4495C2.33154 65.5181 1.8615 64.3085 1.8615 63.0495V32.0224C2.43255 33.0115 3.04277 34.0026 3.68598 34.9979C4.57245 36.3806 5.52488 37.7695 6.53092 39.1584C8.2049 41.4601 10.0356 43.766 12.0002 46.0409V59.841C12.664 59.8678 13.5608 59.806 14.7215 59.5567C14.8761 59.5216 15.0328 59.4887 15.1936 59.4474C15.276 59.4268 15.3585 59.4062 15.4409 59.3856C15.6904 59.3197 15.9502 59.2496 16.2202 59.1693C16.9418 58.9529 17.7437 58.6768 18.626 58.3203C18.8446 58.2317 19.0713 58.1389 19.3002 58.0442C19.4156 57.9968 19.5331 57.9452 19.6527 57.8937C19.8898 57.7907 20.1289 57.6815 20.3742 57.5681C21.0319 57.2673 21.6978 56.9396 22.3698 56.5893C23.7531 55.8743 25.1632 55.0603 26.5898 54.1598C29.3482 52.4186 32.1766 50.3497 34.9886 48.0088C36.1699 47.03 37.3429 45.9997 38.5138 44.9323C39.6168 43.9226 40.7073 42.8758 41.7897 41.796C42.872 40.7142 43.9151 39.6241 44.9253 38.5216C47.2569 41.3653 49.2751 44.2049 50.9244 46.9455C50.2812 47.6235 49.6235 48.2932 48.9556 48.9608C48.2877 49.6285 47.6177 50.2817 46.9394 50.9246C45.7664 52.0394 44.581 53.1213 43.3874 54.1578C44.8139 55.0603 46.224 55.8743 47.6073 56.5893C48.2774 56.9376 48.9453 57.2673 49.6029 57.5681C49.8503 57.6815 50.0895 57.7907 50.3245 57.8937C51.6212 58.4583 52.7612 58.8725 53.757 59.1693C54.027 59.2517 54.2868 59.3238 54.5342 59.3856C55.868 59.7318 56.8988 59.8472 57.6698 59.8472C57.8058 59.8472 57.9357 59.8431 58.0594 59.8369C58.1687 59.8307 58.2676 59.8225 58.3645 59.8101C58.4222 59.8039 58.4779 59.7957 58.5295 59.7895C58.6243 59.7751 58.715 59.7586 58.7933 59.7421C58.8346 59.7318 58.8717 59.7256 58.9088 59.7153C58.9809 59.6989 59.0448 59.6782 59.1067 59.6576C59.2881 59.5917 59.4036 59.5237 59.4633 59.466C59.8427 59.0827 60.6405 56.2905 57.5667 49.6099C57.2657 48.9526 56.9379 48.285 56.5875 47.6152C55.8721 46.2367 55.0619 44.8272 54.1569 43.4012C52.419 40.6441 50.3472 37.8169 48.0032 35.0021C47.0239 33.8213 45.9932 32.6447 44.9232 31.4784C43.913 30.3759 42.8699 29.2858 41.7876 28.204C41.5649 27.9815 41.3464 27.763 41.1238 27.5446C40.6847 27.1139 40.2435 26.6894 39.8023 26.2711C39.3714 25.8631 38.9426 25.4633 38.5118 25.0677C41.3567 22.7412 44.1934 20.7198 46.9353 19.0733C47.6135 19.7162 48.2877 20.3736 48.9556 21.0412C49.6235 21.7089 50.2791 22.3786 50.9203 23.0565C52.0397 24.227 53.1179 25.4098 54.159 26.6049C55.0619 25.1749 55.8762 23.7654 56.5916 22.3827C56.94 21.713 57.2657 21.0495 57.5667 20.3942C60.6405 13.7094 59.8427 10.9173 59.4633 10.5381C59.4056 10.4804 59.2881 10.4124 59.1067 10.3465C59.049 10.3259 58.983 10.3094 58.9108 10.2888C58.8737 10.2785 58.8325 10.2682 58.7913 10.262C58.7129 10.2414 58.6243 10.227 58.5315 10.2146C58.4841 10.2084 58.4326 10.2002 58.3769 10.194C58.2738 10.1837 58.1646 10.1734 58.0491 10.1672C57.9316 10.161 57.8058 10.1569 57.6698 10.1569C57.3338 10.1569 56.9482 10.1816 56.505 10.2331C56.3793 10.2496 56.2514 10.2682 56.1174 10.2888C55.1753 10.433 54.0167 10.7174 52.6128 11.2099C52.4108 11.2779 52.2087 11.3541 51.9964 11.4324L51.6789 11.5561C51.4625 11.6385 51.2439 11.7271 51.0192 11.8198C50.5677 12.0074 50.0956 12.2134 49.6029 12.4401C48.9453 12.7409 48.2815 13.0665 47.6115 13.4148C46.2282 14.1339 44.8181 14.9438 43.3874 15.8463V15.8505C40.629 17.5876 37.8005 19.6585 34.9886 21.9973C33.8073 22.9762 32.6343 24.0024 31.4633 25.0739C30.3604 26.0836 29.2698 27.1304 28.1875 28.2102C27.1052 29.292 26.0579 30.3862 25.0519 31.4866H25.0478C22.7203 28.6409 20.6979 25.8013 19.0548 23.0606C19.2198 22.8855 19.3868 22.7124 19.5537 22.5372C19.7929 22.2879 20.0361 22.0386 20.2835 21.7872C20.5268 21.5399 20.7721 21.2905 21.0195 21.0453C21.6875 20.3777 22.3616 19.7203 23.0398 19.0774C24.2108 17.9626 25.3941 16.8808 26.5898 15.8443C26.0703 15.5166 25.557 15.2014 25.0437 14.9005C24.8994 14.814 24.7571 14.7295 24.6128 14.647C24.4891 14.5749 24.3654 14.5028 24.2438 14.4348C24.0253 14.3091 23.8088 14.1855 23.5944 14.068C23.5882 14.0639 23.58 14.0618 23.5779 14.0577C23.3614 13.9382 23.1491 13.8207 22.9388 13.7115C22.7471 13.6064 22.5595 13.5054 22.3698 13.4107C22.0627 13.2499 21.7534 13.0954 21.4483 12.945C21.3019 12.8728 21.1535 12.8007 21.0092 12.7327C20.7969 12.6297 20.5845 12.5308 20.3763 12.436C20.2526 12.3783 20.1289 12.3226 20.0093 12.2691C19.8279 12.1908 19.6506 12.1125 19.4754 12.0362C19.2425 11.9332 19.0177 11.8404 18.7951 11.7518C18.6446 11.69 18.4982 11.6323 18.3498 11.5746C18.1684 11.5025 17.9911 11.4345 17.8159 11.3727C16.1666 10.7607 14.8349 10.4289 13.7773 10.2785C13.7732 10.2744 13.7711 10.2744 13.7628 10.2744C13.5959 10.2496 13.4371 10.229 13.2846 10.2125C13.1031 10.1919 12.9279 10.1775 12.7671 10.1713C12.5795 10.1569 12.4002 10.1507 12.2332 10.1507C11.4869 10.1507 10.9736 10.2641 10.6891 10.4248C10.6726 10.431 10.654 10.4413 10.6375 10.4516C10.621 10.4578 10.6066 10.4681 10.5922 10.4784C10.5571 10.499 10.5345 10.5196 10.5138 10.5402C10.4932 10.5608 10.4726 10.5855 10.452 10.6185C10.4273 10.6494 10.4066 10.6865 10.386 10.7339C10.3613 10.7792 10.3407 10.8287 10.3201 10.8905C10.3097 10.9214 10.2994 10.9523 10.2891 10.9853C10.2788 11.0203 10.2685 11.0533 10.2623 11.0883C10.2458 11.1501 10.2314 11.2181 10.217 11.2903C10.2025 11.3624 10.1902 11.4366 10.1819 11.5169C10.1654 11.6261 10.1551 11.7457 10.1469 11.8734C10.0582 13.0871 10.2912 15.1581 11.5219 18.3191C11.5426 18.3747 11.5632 18.4283 11.5879 18.486C11.6333 18.5994 11.6807 18.7147 11.7281 18.8343C11.8064 19.03 11.893 19.2278 11.9775 19.4339C11.9817 19.4442 11.9878 19.4545 11.994 19.4689V19.4731C12.1198 19.7698 12.2579 20.0789 12.4043 20.3962C12.7053 21.0495 13.031 21.713 13.3794 22.3847C13.8041 23.2028 14.2597 24.0312 14.7524 24.8658C14.8761 25.078 15.0018 25.2903 15.1317 25.5025C15.3502 25.8693 15.577 26.2381 15.812 26.607C15.8491 26.6688 15.8883 26.7306 15.9275 26.7925C16.0635 27.0088 16.2037 27.2231 16.346 27.4395C16.6222 27.8702 16.915 28.305 17.2159 28.7398C17.3664 28.9582 17.5169 29.1746 17.6674 29.393C17.9684 29.8319 18.2797 30.2646 18.6054 30.7036C19.0816 31.3609 19.5785 32.0183 20.0939 32.6777C20.265 32.8961 20.4361 33.1166 20.6113 33.3371C20.7824 33.5555 20.9577 33.776 21.1391 33.9944C21.3164 34.2128 21.4957 34.4354 21.6771 34.6538C21.772 34.7692 21.8689 34.8908 21.9678 35.0062V35.0103H21.9719C22.9512 36.1869 23.9778 37.3615 25.0457 38.5278C25.7157 39.2593 26.4043 39.9888 27.1093 40.7142C27.4619 41.081 27.8206 41.4436 28.1834 41.8063C29.2657 42.8881 30.3563 43.9349 31.4592 44.9426C28.6143 47.2691 25.7734 49.2885 23.0336 50.9329C22.3554 50.29 21.6854 49.6367 21.0174 48.9691C20.3495 48.3014 19.696 47.6317 19.0528 46.9538C17.954 45.7978 16.8758 44.6108 15.8223 43.3951C14.4968 41.8722 13.2186 40.3082 11.9961 38.7256C11.0416 37.4913 10.1242 36.2384 9.25011 34.9835C8.29149 33.6008 7.3844 32.212 6.54329 30.8231C4.59512 27.6147 2.99124 24.4186 1.85738 21.3462C-0.323741 15.4301 -0.754606 9.98999 1.48424 5.86459C1.55227 5.73889 1.62443 5.61525 1.69658 5.49161C1.77492 5.35767 1.85738 5.22785 1.93984 5.10215C2.02849 4.96615 2.12126 4.8322 2.21609 4.69826V4.69414C2.30474 4.57875 2.39132 4.46129 2.47997 4.34795C2.56862 4.23462 2.65726 4.12128 2.75003 4.01207C2.83662 3.90904 2.92527 3.81425 3.00979 3.7174C3.06545 3.6597 3.11905 3.59788 3.17471 3.54224C3.23244 3.48455 3.2881 3.42685 3.3417 3.37121C3.38705 3.32588 3.43035 3.28466 3.4757 3.23727C3.48601 3.23109 3.50044 3.21666 3.51281 3.20224L3.55816 3.1569C3.77462 2.95496 4.00758 2.7489 4.2529 2.5552C4.31887 2.49956 4.38691 2.4501 4.45494 2.39859C4.54977 2.32234 4.65078 2.25228 4.7518 2.18016C4.81777 2.13482 4.8858 2.08743 4.95383 2.04004C5.02186 1.9947 5.0899 1.94731 5.16205 1.90403C5.37439 1.76803 5.60116 1.63409 5.83205 1.50633C6.03409 1.39712 6.24643 1.28996 6.46083 1.18899C6.46495 1.18899 6.46495 1.18487 6.46495 1.18487C6.55978 1.13953 6.65668 1.09626 6.75563 1.05505C6.95148 0.968502 7.15351 0.890197 7.36173 0.811893H7.36585C9.18414 0.150427 11.4642 -0.185458 14.3112 0.119517C14.3628 0.123638 14.4143 0.12982 14.4658 0.136002C14.6926 0.16073 14.9214 0.19164 15.1565 0.22461C15.1833 0.22461 15.208 0.228731 15.2327 0.234913C15.4595 0.269944 15.6883 0.307036 15.9172 0.350309C16.0409 0.370916 16.1604 0.395643 16.2841 0.41625C16.2882 0.41625 16.2903 0.41625 16.2944 0.420371C16.5109 0.461584 16.7335 0.506918 16.9541 0.556373C16.9809 0.560495 17.0057 0.566676 17.0325 0.572858C17.2098 0.60995 17.3891 0.655284 17.5726 0.698558C17.6468 0.715043 17.7231 0.733588 17.8014 0.756255C17.9313 0.791286 18.0653 0.822196 18.1952 0.859288C18.3292 0.894318 18.4632 0.93141 18.5951 0.968502C18.6941 0.993229 18.791 1.02414 18.8899 1.05505C19.0239 1.09214 19.16 1.13335 19.294 1.17457C19.4136 1.21166 19.5331 1.24669 19.6527 1.28378C20.0836 1.41978 20.5227 1.57021 20.97 1.73094C21.1143 1.78245 21.2566 1.83397 21.4009 1.88755C21.6916 1.99676 21.9905 2.1101 22.2874 2.22961C22.5842 2.34913 22.8873 2.47277 23.1944 2.60259C23.6521 2.79423 24.1221 3.00235 24.6004 3.22284C24.8437 3.33618 25.089 3.44951 25.3323 3.56903C25.5797 3.68443 25.825 3.80601 26.0724 3.92758C26.5651 4.17074 27.0619 4.42626 27.5588 4.69414C27.8082 4.82808 28.0577 4.95996 28.3112 5.10215C28.5607 5.23815 28.8101 5.37827 29.0637 5.52252C29.5667 5.80689 30.0738 6.10156 30.5789 6.4086C30.6573 6.45599 30.7356 6.50338 30.8181 6.55284V6.55696C30.8964 6.60436 30.9747 6.64969 31.0551 6.69709C31.1335 6.7486 31.2118 6.796 31.2943 6.84751C31.5644 7.00824 31.8344 7.17928 32.1045 7.35443C32.3622 7.51516 32.6137 7.68001 32.8714 7.84692C33.1291 8.01178 33.3847 8.18281 33.6424 8.35384C33.9001 8.52487 34.1557 8.69591 34.4134 8.87312C34.4588 8.90403 34.5062 8.93494 34.5495 8.96585C34.6938 9.06476 34.836 9.16367 34.9803 9.26671V9.26258C36.374 8.28996 37.7634 7.3874 39.1426 6.55696C41.2536 5.27318 43.3379 4.15631 45.3623 3.2249C45.6798 3.0786 45.9952 2.93847 46.3065 2.80453C46.6178 2.66853 46.9229 2.53871 47.228 2.41507C48.4361 1.91846 49.5823 1.50839 50.6708 1.17663C50.9409 1.0942 51.2089 1.0159 51.4707 0.939653C51.7346 0.86753 51.9943 0.799529 52.25 0.733588C52.7633 0.603768 53.2601 0.494554 53.7467 0.401825C53.9858 0.356491 54.2249 0.313218 54.462 0.276126C54.695 0.239034 54.9279 0.204004 55.1526 0.173094C55.4948 0.12776 55.8309 0.0906682 56.1545 0.0680012C56.4803 0.0412128 56.7977 0.0206064 57.109 0.0103032C57.3173 0.00412128 57.5193 0 57.7213 0C58.3955 0 59.0366 0.0370916 59.6386 0.113335C59.8777 0.140124 60.1148 0.175155 60.3436 0.216367C60.4591 0.236974 60.5725 0.25758 60.6858 0.278187C60.9085 0.323521 61.1229 0.370915 61.3394 0.424492H61.3435C61.5558 0.480129 61.764 0.537827 61.9661 0.599647C62.5763 0.787165 63.1391 1.00971 63.6565 1.26317C64.0029 1.43009 64.3307 1.61142 64.6399 1.80306C64.7162 1.85046 64.7945 1.89785 64.8667 1.94731C65.0172 2.04622 65.1615 2.14513 65.3017 2.24816C65.5099 2.39859 65.716 2.5552 65.9078 2.71593C66.0335 2.82514 66.1572 2.93229 66.2768 3.04151C66.3963 3.15072 66.5138 3.25994 66.6231 3.37327C66.7324 3.48661 66.8458 3.59994 66.955 3.71946C67.0107 3.77716 67.0602 3.83898 67.1158 3.90079C67.2251 4.02443 67.3323 4.15425 67.4374 4.28407L68.0497 5.12894C68.128 5.24845 68.2064 5.37621 68.2785 5.50191L68.6476 6.16132C68.8352 6.53429 69.0104 6.932 69.165 7.35237L69.7257 9.35737C69.767 9.56344 69.8 9.77774 69.835 9.99411C69.8701 10.2311 69.8969 10.4701 69.9216 10.7153C69.969 11.2078 69.9937 11.7251 69.9937 12.2649C69.9937 12.6647 69.9793 13.083 69.9525 13.5096C69.936 13.7218 69.9175 13.9402 69.8969 14.1587C69.8412 14.713 69.7608 15.2879 69.6577 15.8834C69.6124 16.1225 69.5691 16.3615 69.5175 16.6047C69.466 16.8519 69.4124 17.1013 69.3526 17.3547C69.2598 17.7339 69.1609 18.1213 69.0516 18.5169C69.0145 18.6467 68.9753 18.7807 68.9382 18.9146C68.8599 19.1846 68.7774 19.4545 68.6888 19.7286C68.5115 20.2788 68.3156 20.8434 68.0992 21.4245C67.9384 21.8634 67.7631 22.3064 67.5755 22.7577C67.5137 22.9123 67.4498 23.0627 67.3879 23.2152C67.2581 23.5222 67.1199 23.8313 66.9798 24.1466C66.9076 24.3032 66.8354 24.4619 66.7633 24.6226C65.8315 26.6482 64.7162 28.7274 63.4339 30.8396C62.6031 32.2181 61.696 33.607 60.7229 35C61.6981 36.3951 62.601 37.7839 63.4339 39.1604C64.7182 41.2705 65.8335 43.3518 66.7633 45.3774C66.8354 45.5381 66.9076 45.6947 66.9798 45.8534C67.1199 46.1687 67.256 46.4757 67.3879 46.7848C67.4498 46.9394 67.5137 47.0898 67.5755 47.2423C67.7631 47.6935 67.9384 48.1386 68.0992 48.5755C68.3156 49.1566 68.5094 49.7212 68.6888 50.2714C68.7774 50.5455 68.8599 50.8195 68.9382 51.0854C68.9753 51.2193 69.0145 51.3532 69.0516 51.4831C69.1609 51.8808 69.2598 52.2661 69.3526 52.6453C69.4103 52.8987 69.466 53.1481 69.5175 53.3953C69.5691 53.6385 69.6144 53.8775 69.6577 54.1166C69.7608 54.7121 69.8432 55.287 69.8969 55.8413C69.9175 56.0598 69.934 56.2761 69.9525 56.4904L69.9587 56.4925Z" fill="#61BC9F"/>
</svg>
